<?xml version="1.0" encoding="UTF-8" standalone="no"?>
<svg width="275px" height="35px" viewBox="0 0 275 35" version="1.1" xmlns="http://www.w3.org/2000/svg" xmlns:xlink="http://www.w3.org/1999/xlink" xmlns:sketch="http://www.bohemiancoding.com/sketch/ns">
    <!-- Generator: Sketch 3.4.3 (16044) - http://www.bohemiancoding.com/sketch -->
    <title>built-in-norfolk</title>
    <desc>Created with Sketch.</desc>
    <defs></defs>
    <g id="Page-1" stroke="none" stroke-width="1" fill="none" fill-rule="evenodd" sketch:type="MSPage">
        <g id="built-in-norfolk" sketch:type="MSLayerGroup">
            <path d="M0,0 L125,0 L125,35 L0,35 L0,0 Z" id="Shape" fill="#023C5B" sketch:type="MSShapeGroup"></path>
            <path d="M125,0 L275,0 L275,35 L125,35 L125,0 Z" id="Shape" fill="#00ADBB" sketch:type="MSShapeGroup"></path>
            <path d="M240.37304,13.005 L242.883499,13.005 L242.883499,17.0625768 L246.000534,13.005 L248.976958,13.005 L245.548938,17.3062581 L249.091909,23.005 L246.07751,23.005 L243.799006,19.2919772 L242.881447,20.4197115 L242.881447,23.0038666 L240.372013,23.0038666 L240.372013,13.0072668 L240.37304,13.005 Z M226.703352,13.005 L229.217917,13.005 L229.217917,20.5761209 L233.600445,20.5761209 L233.600445,23.005 L226.705405,23.005 L226.705405,13.005 L226.703352,13.005 Z M203.457777,13.005 L203.457777,15.4344298 L198.722184,15.4344298 L198.722184,17.1349172 L203.004129,17.1349172 L203.004129,19.4339763 L198.722184,19.4339763 L198.722184,23.005 L196.212751,23.005 L196.212751,13.0061337 L203.457777,13.005 Z M185.546748,17.7884908 C186.551316,17.7884908 187.13227,17.3132549 187.13227,16.5550002 L187.13227,16.5314153 C187.13227,15.717736 186.522268,15.3050002 185.531014,15.3050002 L183.594499,15.3050002 L183.594499,17.8050002 L185.545538,17.8050002 L185.546748,17.7884908 Z M185.773573,13.005 C187.15915,13.005 188.113658,13.4044116 188.723312,14.0889556 C189.253937,14.6660093 189.523867,15.4354141 189.523867,16.4197997 L189.523867,16.4537441 C189.523867,17.981239 188.786946,18.9995689 187.662063,19.5200487 L189.822536,23.005 L186.925141,23.005 L185.101312,19.9839545 L184.003114,19.9839545 L184.003114,23.005 L181.492654,23.005 L181.492654,13.0140518 L185.773573,13.005 Z M151.002053,13.005 L153.342138,13.005 L157.0678,18.2906495 L157.0678,13.005 L159.551574,13.005 L159.551574,23.005 L157.353126,23.005 L153.483775,17.5187157 L153.483775,23.005 L151,23.005 L151,13.005 L151.002053,13.005 Z M217.933805,18.0341997 L217.933805,18.004825 C217.933805,16.5090633 216.797214,15.206 215.129389,15.206 C213.480096,15.206 212.37439,16.4820386 212.37439,17.9789752 L212.37439,18.0071749 C212.37439,19.5029366 213.510982,20.8059999 215.162746,20.8059999 C216.826864,20.8059999 217.930099,19.5323113 217.930099,18.0365497 L217.933805,18.0341997 Z M209.737674,18.028341 L209.737674,18.00109 C209.737674,15.2389361 212.078017,13 215.198858,13 C218.319698,13 220.62795,15.2127752 220.62795,17.9727491 L220.62795,18 C220.62795,20.7610639 218.287607,23 215.166767,23 C212.045927,23 209.734236,20.7872248 209.734236,18.0261609 L209.737674,18.028341 Z M173.773516,18.0341997 L173.773516,18.004825 C173.773516,16.5090633 172.636925,15.206 170.9691,15.206 C169.319807,15.206 168.214101,16.4820386 168.214101,17.9789752 L168.214101,18.0071749 C168.214101,19.5029366 169.350693,20.8059999 171.002457,20.8059999 C172.666575,20.8059999 173.76981,19.5323113 173.76981,18.0365497 L173.773516,18.0341997 Z M165.577385,18.028341 L165.577385,18.00109 C165.577385,15.2389361 167.917729,13 171.038569,13 C174.159409,13 176.467662,15.2127752 176.467662,17.9727491 L176.467662,18 C176.467662,20.7610639 174.127318,23 171.006478,23 C167.885638,23 165.573947,20.7872248 165.573947,18.0261609 L165.577385,18.028341 Z" id="Shape" fill="#FFFFFF" sketch:type="MSShapeGroup"></path>
            <path d="M97.6809148,13.1491668 C97.6809148,13.0582683 97.7466495,13 97.8465661,13 L99.8317526,13 C99.950075,13 100.042103,13.0419532 100.107838,13.1456707 L104.078211,19.430486 L104.157093,19.430486 L104.157093,13.1491668 C104.157093,13.0594336 104.222827,13.0011654 104.314856,13.0011654 L106.18172,13.0011654 C106.281637,13.0011654 106.348686,13.0594336 106.348686,13.146836 L106.348686,22.8426757 C106.348686,22.926582 106.282951,22.9860156 106.18172,22.9860156 L104.20968,22.9860156 C104.078211,22.9860156 103.992756,22.939401 103.925707,22.8403449 L99.9421868,16.5823331 L99.8580465,16.5823331 L99.8580465,22.8543293 C99.8580465,22.9405664 99.7923118,23 99.6897658,23 L97.8478808,23 C97.7479642,23 97.6809148,22.9417317 97.6809148,22.8543293 L97.6809148,13.1701433 L97.6809148,13.1491668 Z M88.9934233,13.1458236 C88.9934233,13.0583294 89.059158,13 89.1590746,13 L91.2625835,13 C91.3625001,13 91.4295495,13.0583294 91.4295495,13.1469902 L91.4295495,22.8530098 C91.4295495,22.9416706 91.3638148,23 91.2665276,23 L89.1630187,23 C89.063102,23 88.9960527,22.9416706 88.9960527,22.8541764 L88.9960527,13.1481568 L88.9934233,13.1458236 Z M70.0881376,22.9965006 C69.9869063,22.9965006 69.9211716,22.938178 69.9211716,22.850694 L69.9211716,15.014464 C69.9211716,14.9561414 69.8883043,14.9258136 69.8212549,14.9258136 L66.9723152,14.9258136 C66.8723985,14.9258136 66.8053491,14.867491 66.8053491,14.7788405 L66.8053491,13.1458066 C66.8053491,13.0583226 66.8710838,13 66.9710005,13 L75.3061542,13 C75.4034415,13 75.4691762,13.0583226 75.4691762,13.1469731 L75.4691762,14.780007 C75.4691762,14.8698239 75.4034415,14.9281465 75.3035249,14.9281465 L72.450641,14.9281465 C72.3849063,14.9281465 72.3533537,14.9573078 72.3533537,15.0167969 L72.3533537,22.8530269 C72.3533537,22.9416774 72.2876191,23 72.1877024,23 L70.0841935,23 L70.0881376,22.9965006 Z M55.8302918,13.1458236 C55.8302918,13.0583294 55.8960264,13 55.9959431,13 L58.103396,13 C58.2033127,13 58.2690473,13.0583294 58.2690473,13.1469902 L58.2690473,20.9864676 C58.2690473,21.044797 58.3006,21.0739617 58.3676493,21.0739617 L63.3371889,21.0739617 C63.4371056,21.0739617 63.504155,21.1322912 63.504155,21.2209519 L63.504155,22.8541764 C63.504155,22.9416706 63.4384203,23 63.3385036,23 L55.9946284,23 C55.8973411,23 55.8302918,22.9416706 55.8302918,22.8541764 L55.8302918,13.1481568 L55.8302918,13.1458236 Z M47.0941566,13.1458236 C47.0941566,13.0583294 47.1625207,13 47.2611226,13 L49.3646315,13 C49.4658628,13 49.5315975,13.0583294 49.5315975,13.1469902 L49.5315975,22.8530098 C49.5315975,22.9416706 49.4658628,23 49.3659462,23 L47.2624373,23 C47.1625207,23 47.0954713,22.9416706 47.0954713,22.8541764 L47.0954713,13.1481568 L47.0941566,13.1458236 Z M32.2078875,19.2232988 L32.2078875,13.1456779 C32.2078875,13.0584119 32.2736222,13.001 32.3735388,13.001 L34.4770477,13.001 C34.578279,13.001 34.6440137,13.0584119 34.6440137,13.1456779 L34.6440137,19.2818589 C34.6440137,20.4530611 35.3894446,21.1190388 36.5345423,21.1190388 C37.6599195,21.1190388 38.4066651,20.4530611 38.4066651,19.2818589 L38.4066651,13.1456779 C38.4066651,13.0584119 38.4723998,13.001 38.5723164,13.001 L40.6758253,13.001 C40.7770566,13.001 40.8427913,13.0584119 40.8427913,13.1456779 L40.8427913,19.2232988 C40.8427913,21.6690446 39.0548088,23.001 36.535857,23.001 C33.9945553,23.001 32.2052581,21.6690446 32.2052581,19.2232988 L32.2078875,19.2232988 Z M20.2711482,21.0720003 L21.9303808,21.0720003 C22.8211887,21.0720003 23.2954233,20.6700003 23.2954233,20.0020003 C23.2954233,19.3460003 22.8211887,18.9300003 21.9303808,18.9300003 L20.2711482,18.9300003 C20.2123102,18.9300003 20.1817144,18.9550003 20.1817144,19.0060003 L20.1817144,20.9960003 C20.1817144,21.0460003 20.2111334,21.0700003 20.2711482,21.0700003 L20.2711482,21.0720003 Z M21.8127048,17.2050008 C22.6434978,17.2050008 23.1306768,16.8250008 23.1306768,16.1950008 C23.1306768,15.5650008 22.6434978,15.2000008 21.8127048,15.2000008 L20.2711482,15.2000008 C20.2123102,15.2000008 20.1817144,15.2250008 20.1817144,15.2760008 L20.1817144,17.1310008 C20.1817144,17.1810008 20.2111334,17.2060008 20.2711482,17.2060008 L21.8127048,17.2060008 L21.8127048,17.2050008 Z M18,13.1458917 C18,13.0583567 18.068364,13 18.166966,13 L22.5580407,13 C25.0099432,13 26.1537261,14.0737628 26.1537261,15.6633987 C26.1537261,16.7523343 25.5884081,17.4281046 24.8442919,17.7957516 L24.8442919,17.82493 C25.5897228,18.0723623 26.3522448,18.8986928 26.3522448,20.089169 C26.3522448,22.0581232 24.8771592,23 22.441033,23 L18.1656513,23 C18.0670493,23 18,22.9416433 18,22.8541083 L18,13.1435574 L18,13.1458917 Z" id="Shape" fill="#FFFFFF" sketch:type="MSShapeGroup"></path>
        </g>
    </g>
</svg>