<?xml version="1.0" encoding="UTF-8" standalone="no"?>
<svg width="300px" height="35px" viewBox="0 0 300 35" version="1.1" xmlns="http://www.w3.org/2000/svg" xmlns:xlink="http://www.w3.org/1999/xlink" xmlns:sketch="http://www.bohemiancoding.com/sketch/ns">
    <!-- Generator: Sketch 3.4.3 (16044) - http://www.bohemiancoding.com/sketch -->
    <title>built-in-norfolk-ship</title>
    <desc>Created with Sketch.</desc>
    <defs></defs>
    <g id="Page-1" stroke="none" stroke-width="1" fill="none" fill-rule="evenodd" sketch:type="MSPage">
        <g id="built-in-norfolk-ship" sketch:type="MSLayerGroup">
            <path d="M0,0 L125,0 L125,35 L0,35 L0,0 Z" id="Shape" fill="#023C5B" sketch:type="MSShapeGroup"></path>
            <path d="M125,0 L300,0 L300,35 L125,35 L125,0 Z" id="Shape" fill="#00ADBB" sketch:type="MSShapeGroup"></path>
            <path d="M239.37304,12.967898 L241.883499,12.967898 L241.883499,17.0254748 L245.000534,12.967898 L247.976958,12.967898 L244.548938,17.2691561 L248.091909,22.967898 L245.07751,22.967898 L242.799006,19.2548752 L241.881447,20.3826095 L241.881447,22.9667646 L239.372013,22.9667646 L239.372013,12.9701648 L239.37304,12.967898 Z M225.703352,12.967898 L228.217917,12.967898 L228.217917,20.5390189 L232.600445,20.5390189 L232.600445,22.967898 L225.705405,22.967898 L225.705405,12.967898 L225.703352,12.967898 Z M202.457777,12.967898 L202.457777,15.3973278 L197.722184,15.3973278 L197.722184,17.0978152 L202.004129,17.0978152 L202.004129,19.3968743 L197.722184,19.3968743 L197.722184,22.967898 L195.212751,22.967898 L195.212751,12.9690316 L202.457777,12.967898 Z M184.546748,17.7513887 C185.551316,17.7513887 186.13227,17.2761529 186.13227,16.5178982 L186.13227,16.4943133 C186.13227,15.680634 185.522268,15.2678982 184.531014,15.2678982 L182.594499,15.2678982 L182.594499,17.7678982 L184.545538,17.7678982 L184.546748,17.7513887 Z M184.773573,12.967898 C186.15915,12.967898 187.113658,13.3673096 187.723312,14.0518536 C188.253937,14.6289073 188.523867,15.3983121 188.523867,16.3826977 L188.523867,16.416642 C188.523867,17.944137 187.786946,18.9624669 186.662063,19.4829466 L188.822536,22.967898 L185.925141,22.967898 L184.101312,19.9468525 L183.003114,19.9468525 L183.003114,22.967898 L180.492654,22.967898 L180.492654,12.9769498 L184.773573,12.967898 Z M150.002053,12.967898 L152.342138,12.967898 L156.0678,18.2535475 L156.0678,12.967898 L158.551574,12.967898 L158.551574,22.967898 L156.353126,22.967898 L152.483775,17.4816137 L152.483775,22.967898 L150,22.967898 L150,12.967898 L150.002053,12.967898 Z M216.933805,17.9970977 L216.933805,17.9677229 C216.933805,16.4719613 215.797214,15.168898 214.129389,15.168898 C212.480096,15.168898 211.37439,16.4449366 211.37439,17.9418732 L211.37439,17.9700729 C211.37439,19.4658345 212.510982,20.7688979 214.162746,20.7688979 C215.826864,20.7688979 216.930099,19.4952093 216.930099,17.9994477 L216.933805,17.9970977 Z M208.737674,17.9912389 L208.737674,17.963988 C208.737674,15.2018341 211.078017,12.962898 214.198858,12.962898 C217.319698,12.962898 219.62795,15.1756732 219.62795,17.9356471 L219.62795,17.962898 C219.62795,20.7239619 217.287607,22.962898 214.166767,22.962898 C211.045927,22.962898 208.734236,20.7501228 208.734236,17.9890589 L208.737674,17.9912389 Z M172.773516,17.9970977 L172.773516,17.9677229 C172.773516,16.4719613 171.636925,15.168898 169.9691,15.168898 C168.319807,15.168898 167.214101,16.4449366 167.214101,17.9418732 L167.214101,17.9700729 C167.214101,19.4658345 168.350693,20.7688979 170.002457,20.7688979 C171.666575,20.7688979 172.76981,19.4952093 172.76981,17.9994477 L172.773516,17.9970977 Z M164.577385,17.9912389 L164.577385,17.963988 C164.577385,15.2018341 166.917729,12.962898 170.038569,12.962898 C173.159409,12.962898 175.467662,15.1756732 175.467662,17.9356471 L175.467662,17.962898 C175.467662,20.7239619 173.127318,22.962898 170.006478,22.962898 C166.885638,22.962898 164.573947,20.7501228 164.573947,17.9890589 L164.577385,17.9912389 Z M272.506495,11.2164726 L269.267987,11.2164726 L269.267987,9.8030543 L267.080936,9.8030543 L267.080936,8 L266.790022,8 L266.499109,8 L266.499109,9.8030543 L264.312058,9.8030543 L264.312058,11.2164726 L261.07355,11.2164726 L261.07355,11.9303085 C261.370809,12.1958536 261.646095,12.4418326 261.986004,12.745689 C261.913222,13.0143007 262.361614,13.595364 261.530187,13.6508659 L261.530187,15.3356602 C261.691033,15.2872851 261.826755,15.2484986 261.961053,15.2051769 C262.014409,15.1877273 262.063363,15.1577951 262.116071,15.1377108 C264.37625,14.2668717 265.568869,13.8396154 266.789979,13.8553805 C268.011089,13.8396154 269.203708,14.2668717 271.463887,15.1377108 C271.516596,15.157752 271.565506,15.1876841 271.618905,15.2051769 C271.753203,15.2484986 271.888968,15.2873283 272.049771,15.3356602 L272.049771,13.6508659 C271.218344,13.5954072 271.666736,13.0143439 271.593954,12.745689 C271.933864,12.4418326 272.20915,12.1958536 272.506409,11.9303085 C272.506495,11.7436754 272.506495,11.5108268 272.506495,11.2164726 L272.506495,11.2164726 Z M264.722592,13.566123 L263.202927,13.566123 L263.202927,12.6111456 L264.722592,12.6111456 L264.722592,13.566123 L264.722592,13.566123 Z M267.638717,13.5722563 L266.790022,13.5722563 L265.941328,13.5722563 L265.941328,12.612139 L266.790022,12.612139 L267.638717,12.612139 L267.638717,13.5722563 L267.638717,13.5722563 Z M270.377117,13.566123 L268.857453,13.566123 L268.857453,12.6111456 L270.377117,12.6111456 L270.377117,13.566123 L270.377117,13.566123 Z M267.86859,14.6184986 C267.486634,14.5319848 267.076101,14.3932086 266.7077,14.4538503 C263.851492,14.9249465 261.295911,16.1855512 258.698025,17.5445043 C259.33597,18.7082291 259.945166,19.8284595 260.562779,20.9438955 C261.438497,22.5251584 262.292242,24.1148869 262.707481,25.8965611 C262.733641,26.0092925 262.812554,26.1588667 262.906618,26.1993377 C264.016224,26.677863 265.171416,26.9403414 266.411606,26.9349856 C266.542537,25.6517483 266.668114,24.4226738 266.793562,23.1932538 C266.822183,23.1966228 266.850631,23.1996894 266.879079,23.202972 C267.005304,24.4460839 267.131529,25.6891094 267.266992,27.0239613 C268.243078,26.8229453 269.119616,26.6183443 270.005522,26.4674743 C270.697299,26.349603 271.019423,25.9979761 271.19322,25.2954566 C271.6815,23.3193747 272.791926,21.6176059 273.758341,19.8554977 C274.172285,19.1005862 274.57099,18.3372954 275,17.5343542 C272.639843,16.3980564 270.385881,15.1888935 267.86859,14.6184986 L267.86859,14.6184986 Z M269.906839,18.7825627 C269.858576,18.7930584 269.809191,18.7989325 269.759202,18.7989757 C269.472433,18.7994508 269.2243,18.6251275 269.098593,18.3682209 C269.012299,18.231993 268.961274,18.0720527 268.961274,17.9016166 C268.961274,17.419636 269.36326,17.0174311 269.844978,17.0174311 C270.326697,17.0174311 270.728683,17.419636 270.728683,17.9016166 C270.728683,18.3626923 270.360541,18.7498231 269.906839,18.7825627 L269.906839,18.7825627 Z M271.763607,19.2476121 C270.932741,19.2476121 270.932741,17.9585006 271.763607,17.9585006 C272.594473,17.9585006 272.594473,19.2476121 271.763607,19.2476121 L271.763607,19.2476121 Z M273.165637,19.4624064 C272.724065,19.4624064 272.724065,18.7773365 273.165637,18.7773365 C273.607208,18.7773365 273.607208,19.4624064 273.165637,19.4624064 L273.165637,19.4624064 Z" id="Shape" fill="#FFFFFF" sketch:type="MSShapeGroup"></path>
            <path d="M97.6809148,13.1491668 C97.6809148,13.0582683 97.7466495,13 97.8465661,13 L99.8317526,13 C99.950075,13 100.042103,13.0419532 100.107838,13.1456707 L104.078211,19.430486 L104.157093,19.430486 L104.157093,13.1491668 C104.157093,13.0594336 104.222827,13.0011654 104.314856,13.0011654 L106.18172,13.0011654 C106.281637,13.0011654 106.348686,13.0594336 106.348686,13.146836 L106.348686,22.8426757 C106.348686,22.926582 106.282951,22.9860156 106.18172,22.9860156 L104.20968,22.9860156 C104.078211,22.9860156 103.992756,22.939401 103.925707,22.8403449 L99.9421868,16.5823331 L99.8580465,16.5823331 L99.8580465,22.8543293 C99.8580465,22.9405664 99.7923118,23 99.6897658,23 L97.8478808,23 C97.7479642,23 97.6809148,22.9417317 97.6809148,22.8543293 L97.6809148,13.1701433 L97.6809148,13.1491668 Z M88.9934233,13.1458236 C88.9934233,13.0583294 89.059158,13 89.1590746,13 L91.2625835,13 C91.3625001,13 91.4295495,13.0583294 91.4295495,13.1469902 L91.4295495,22.8530098 C91.4295495,22.9416706 91.3638148,23 91.2665276,23 L89.1630187,23 C89.063102,23 88.9960527,22.9416706 88.9960527,22.8541764 L88.9960527,13.1481568 L88.9934233,13.1458236 Z M70.0881376,22.9965006 C69.9869063,22.9965006 69.9211716,22.938178 69.9211716,22.850694 L69.9211716,15.014464 C69.9211716,14.9561414 69.8883043,14.9258136 69.8212549,14.9258136 L66.9723152,14.9258136 C66.8723985,14.9258136 66.8053491,14.867491 66.8053491,14.7788405 L66.8053491,13.1458066 C66.8053491,13.0583226 66.8710838,13 66.9710005,13 L75.3061542,13 C75.4034415,13 75.4691762,13.0583226 75.4691762,13.1469731 L75.4691762,14.780007 C75.4691762,14.8698239 75.4034415,14.9281465 75.3035249,14.9281465 L72.450641,14.9281465 C72.3849063,14.9281465 72.3533537,14.9573078 72.3533537,15.0167969 L72.3533537,22.8530269 C72.3533537,22.9416774 72.2876191,23 72.1877024,23 L70.0841935,23 L70.0881376,22.9965006 Z M55.8302918,13.1458236 C55.8302918,13.0583294 55.8960264,13 55.9959431,13 L58.103396,13 C58.2033127,13 58.2690473,13.0583294 58.2690473,13.1469902 L58.2690473,20.9864676 C58.2690473,21.044797 58.3006,21.0739617 58.3676493,21.0739617 L63.3371889,21.0739617 C63.4371056,21.0739617 63.504155,21.1322912 63.504155,21.2209519 L63.504155,22.8541764 C63.504155,22.9416706 63.4384203,23 63.3385036,23 L55.9946284,23 C55.8973411,23 55.8302918,22.9416706 55.8302918,22.8541764 L55.8302918,13.1481568 L55.8302918,13.1458236 Z M47.0941566,13.1458236 C47.0941566,13.0583294 47.1625207,13 47.2611226,13 L49.3646315,13 C49.4658628,13 49.5315975,13.0583294 49.5315975,13.1469902 L49.5315975,22.8530098 C49.5315975,22.9416706 49.4658628,23 49.3659462,23 L47.2624373,23 C47.1625207,23 47.0954713,22.9416706 47.0954713,22.8541764 L47.0954713,13.1481568 L47.0941566,13.1458236 Z M32.2078875,19.2232988 L32.2078875,13.1456779 C32.2078875,13.0584119 32.2736222,13.001 32.3735388,13.001 L34.4770477,13.001 C34.578279,13.001 34.6440137,13.0584119 34.6440137,13.1456779 L34.6440137,19.2818589 C34.6440137,20.4530611 35.3894446,21.1190388 36.5345423,21.1190388 C37.6599195,21.1190388 38.4066651,20.4530611 38.4066651,19.2818589 L38.4066651,13.1456779 C38.4066651,13.0584119 38.4723998,13.001 38.5723164,13.001 L40.6758253,13.001 C40.7770566,13.001 40.8427913,13.0584119 40.8427913,13.1456779 L40.8427913,19.2232988 C40.8427913,21.6690446 39.0548088,23.001 36.535857,23.001 C33.9945553,23.001 32.2052581,21.6690446 32.2052581,19.2232988 L32.2078875,19.2232988 Z M20.2711482,21.0720003 L21.9303808,21.0720003 C22.8211887,21.0720003 23.2954233,20.6700003 23.2954233,20.0020003 C23.2954233,19.3460003 22.8211887,18.9300003 21.9303808,18.9300003 L20.2711482,18.9300003 C20.2123102,18.9300003 20.1817144,18.9550003 20.1817144,19.0060003 L20.1817144,20.9960003 C20.1817144,21.0460003 20.2111334,21.0700003 20.2711482,21.0700003 L20.2711482,21.0720003 Z M21.8127048,17.2050008 C22.6434978,17.2050008 23.1306768,16.8250008 23.1306768,16.1950008 C23.1306768,15.5650008 22.6434978,15.2000008 21.8127048,15.2000008 L20.2711482,15.2000008 C20.2123102,15.2000008 20.1817144,15.2250008 20.1817144,15.2760008 L20.1817144,17.1310008 C20.1817144,17.1810008 20.2111334,17.2060008 20.2711482,17.2060008 L21.8127048,17.2060008 L21.8127048,17.2050008 Z M18,13.1458917 C18,13.0583567 18.068364,13 18.166966,13 L22.5580407,13 C25.0099432,13 26.1537261,14.0737628 26.1537261,15.6633987 C26.1537261,16.7523343 25.5884081,17.4281046 24.8442919,17.7957516 L24.8442919,17.82493 C25.5897228,18.0723623 26.3522448,18.8986928 26.3522448,20.089169 C26.3522448,22.0581232 24.8771592,23 22.441033,23 L18.1656513,23 C18.0670493,23 18,22.9416433 18,22.8541083 L18,13.1435574 L18,13.1458917 Z" id="Shape" fill="#FFFFFF" sketch:type="MSShapeGroup"></path>
        </g>
    </g>
</svg>