<?xml version="1.0" encoding="UTF-8" standalone="no"?>
<svg width="169px" height="37px" viewBox="0 0 169 37" version="1.1" xmlns="http://www.w3.org/2000/svg" xmlns:xlink="http://www.w3.org/1999/xlink" xmlns:sketch="http://www.bohemiancoding.com/sketch/ns">
    <!-- Generator: Sketch 3.4.3 (16044) - http://www.bohemiancoding.com/sketch -->
    <title>hacked-at-de</title>
    <desc>Created with Sketch.</desc>
    <defs></defs>
    <g id="Page-1" stroke="none" stroke-width="1" fill="none" fill-rule="evenodd" sketch:type="MSPage">
        <g id="hacked-at-de" sketch:type="MSLayerGroup" transform="translate(1.000000, 1.000000)">
            <path d="M0,0 L116.8,0 L116.8,35 L0,35 L0,0 Z" id="Shape" stroke="#E92D26" stroke-width="0.5" fill="#EF2D24" sketch:type="MSShapeGroup"></path>
            <path d="M97.5,21.6 C97.4,21.6 97.4,21.5 97.4,21.5 L97.4,14.8 C97.4,14.7 97.4,14.7 97.3,14.7 L95.1,14.7 C95,14.7 95,14.7 95,14.6 L95,13.1 C95,13 95.1,13 95.1,13 L101.4,13 C101.5,13 101.5,13 101.5,13.1 L101.5,14.5 C101.5,14.6 101.4,14.6 101.4,14.6 L99.2,14.6 C99.1,14.6 99.1,14.6 99.1,14.7 L99.1,21.4 C99.1,21.5 99,21.5 99,21.5 L97.5,21.5 L97.5,21.6 Z M90.052,18.2699999 L89.052,15.2699999 L88.052,18.2699999 L90.052,18.2699999 L90.052,18.2699999 Z M88.152,13.1 C88.152,13 88.252,13 88.352,13 L89.952,13 C90.052,13 90.052,13 90.152,13.1 L93.052,21.4 C93.052,21.5 93.052,21.5 92.952,21.5 L91.252,21.5 C91.152,21.5 91.152,21.5 91.052,21.4 L90.552,19.9 L87.552,19.9 L87.052,21.4 C87.052,21.5 86.952,21.5 86.852,21.5 L85.152,21.5 C85.052,21.5 85.052,21.4 85.052,21.4 L88.152,13.1 L88.152,13.1 Z M67.2145361,19.8129999 L68.1845361,19.8129999 C69.0405361,19.8129999 69.5575361,19.5609999 69.7725361,18.8679999 C69.8605361,18.6159999 69.9105361,18.2879999 69.9105361,17.1799999 C69.9105361,16.0719999 69.8605361,15.7429999 69.7725361,15.4899999 C69.5575361,14.7999999 69.0425361,14.5459999 68.1825361,14.5459999 L67.2125361,14.5459999 C67.1625361,14.5459999 67.1375361,14.5709999 67.1375361,14.6219999 L67.1375361,19.7389999 C67.1375361,19.7789999 67.1625361,19.8089999 67.2135361,19.8089999 L67.2145361,19.8129999 Z M65.2845361,13.126 C65.2845361,13.05 65.3345361,13 65.4105361,13 L68.5985361,13 C70.0985361,13 71.1445361,13.643 71.5605361,14.928 C71.7105361,15.408 71.7885361,15.886 71.7885361,17.285 C71.7885361,18.675 71.7125361,19.155 71.5605361,19.635 C71.1445361,20.915 70.0985361,21.565 68.5985361,21.565 L65.4105361,21.565 C65.3355361,21.565 65.2845361,21.515 65.2845361,21.435 L65.2845361,13.125 L65.2845361,13.126 Z M56.127,13 L61.621,13 C61.697,13 61.748,13.05 61.748,13.126 L61.748,14.476 C61.748,14.55 61.698,14.601 61.621,14.601 L57.931,14.601 C57.879,14.601 57.854,14.626 57.854,14.676 L57.854,16.378 C57.854,16.428 57.879,16.453 57.93,16.453 L61.004,16.453 C61.08,16.453 61.131,16.503 61.131,16.579 L61.131,17.915 C61.131,17.991 61.081,18.041 61.004,18.041 L57.93,18.041 C57.88,18.041 57.854,18.066 57.854,18.117 L57.854,19.893 C57.854,19.943 57.879,19.969 57.93,19.969 L61.62,19.969 C61.697,19.969 61.748,20.019 61.748,20.095 L61.748,21.445 C61.748,21.519 61.698,21.57 61.621,21.57 L56.127,21.57 C56.051,21.57 56,21.52 56,21.444 L56,13.134 C56,13.05 56.05,13 56.127,13 Z M46,13.133 C46,13.057 46.05,13.007 46.125,13.007 L47.725,13.007 C47.801,13.007 47.852,13.057 47.852,13.133 L47.852,16.838 L50.702,13.12 C50.762,13.03 50.814,13 50.915,13 L52.743,13 C52.818,13 52.856,13.09 52.793,13.16 L50.197,16.41 L53.033,21.41 C53.083,21.5 53.046,21.56 52.957,21.56 L51.104,21.56 C51.004,21.56 50.964,21.53 50.914,21.45 L48.974,17.84 L47.854,19.25 L47.854,21.43 C47.854,21.503 47.802,21.554 47.727,21.554 L46.127,21.554 C46.051,21.554 46,21.504 46,21.428 L46,13.108 L46,13.133 Z M36,17.424 C36,16.1 36.05,15.658 36.24,15.104 C36.692,13.706 37.79,13 39.29,13 C40.738,13 41.797,13.706 42.276,14.903 C42.314,14.963 42.289,15.023 42.213,15.053 L40.84,15.663 C40.764,15.703 40.7,15.673 40.663,15.593 C40.423,15.033 40.02,14.623 39.303,14.623 C38.633,14.623 38.205,14.973 38.017,15.563 C37.917,15.873 37.887,16.177 37.887,17.403 C37.887,18.629 37.927,18.925 38.027,19.243 C38.217,19.833 38.647,20.185 39.317,20.185 C40.037,20.185 40.437,19.769 40.677,19.215 C40.717,19.139 40.777,19.115 40.857,19.152 L42.237,19.769 C42.312,19.793 42.337,19.859 42.299,19.919 C41.819,21.119 40.762,21.822 39.313,21.822 C37.813,21.822 36.717,21.117 36.263,19.719 C36.073,19.161 36.023,18.719 36.023,17.399 L36,17.424 Z M29.8,18.2699999 L28.8,15.2699999 L27.8,18.2699999 L29.8,18.2699999 L29.8,18.2699999 Z M27.9,13.1 C27.9,13 28,13 28.1,13 L29.7,13 C29.8,13 29.8,13 29.9,13.1 L32.8,21.4 C32.8,21.5 32.8,21.5 32.7,21.5 L31,21.5 C30.9,21.5 30.9,21.5 30.8,21.4 L30.3,19.9 L27.3,19.9 L26.8,21.4 C26.8,21.5 26.7,21.5 26.6,21.5 L24.9,21.5 C24.8,21.5 24.8,21.4 24.8,21.4 L27.9,13.1 L27.9,13.1 Z M15,13.1 C15,13 15.1,13 15.1,13 L16.7,13 C16.8,13 16.8,13 16.8,13.1 L16.8,16.3 C16.8,16.4 16.8,16.4 16.9,16.4 L19.7,16.4 C19.8,16.4 19.8,16.4 19.8,16.3 L19.8,13.1 C19.8,13 19.9,13 19.9,13 L21.5,13 C21.6,13 21.6,13 21.6,13.1 L21.6,21.4 C21.6,21.5 21.5,21.5 21.5,21.5 L19.9,21.5 C19.8,21.5 19.8,21.4 19.8,21.4 L19.8,18.1 C19.8,18 19.8,18 19.7,18 L16.9,18 C16.8,18 16.8,18 16.8,18.1 L16.8,21.4 C16.8,21.5 16.7,21.5 16.7,21.5 L15.1,21.5 C15,21.5 15,21.4 15,21.4 L15,13.1 L15,13.1 Z" id="Shape" fill="#FFFFFF" sketch:type="MSShapeGroup"></path>
            <path d="M116.8,0 L166.8,0 L166.8,35 L116.8,35 L116.8,0 Z" id="Shape" stroke="#EF2D24" stroke-width="0.5" fill="#FFFFFF" sketch:type="MSShapeGroup"></path>
            <path d="M132,13 L135.404,13 C138.554,13 140.384,14.815 140.384,17.36 L140.384,17.386 C140.384,19.932 138.53,21.823 135.354,21.823 L132.001,21.823 L132.001,13 L132,13 Z M135.443,19.656 C136.905,19.656 137.875,18.849 137.875,17.426 L137.875,17.4 C137.875,15.988 136.905,15.17 135.443,15.17 L134.447,15.17 L134.447,19.656 L135.443,19.656 L135.443,19.656 Z M144.8,13 L151.896,13 L151.896,15.08 L147.22,15.08 L147.22,16.416 L151.455,16.416 L151.455,18.346 L147.22,18.346 L147.22,19.744 L151.96,19.744 L151.96,21.824 L144.8,21.824 L144.8,13 L144.8,13 Z" id="Shape" fill="#EF2D24" sketch:type="MSShapeGroup"></path>
        </g>
    </g>
</svg>