<?xml version="1.0" encoding="UTF-8" standalone="no"?>
<svg width="225px" height="35px" viewBox="0 0 225 35" version="1.1" xmlns="http://www.w3.org/2000/svg" xmlns:xlink="http://www.w3.org/1999/xlink" xmlns:sketch="http://www.bohemiancoding.com/sketch/ns">
    <!-- Generator: Sketch 3.4.3 (16044) - http://www.bohemiancoding.com/sketch -->
    <title>powered-by-8020</title>
    <desc>Created with Sketch.</desc>
    <defs></defs>
    <g id="Page-1" stroke="none" stroke-width="1" fill="none" fill-rule="evenodd" sketch:type="MSPage">
        <g id="powered-by-8020" sketch:type="MSLayerGroup">
            <path d="M0,0 L150,0 L150,35 L0,35 L0,0 Z" id="Shape" fill="#F85100" sketch:type="MSShapeGroup"></path>
            <path d="M150,0 L225,0 L225,35 L150,35 L150,0 Z" id="Shape" fill="#071155" sketch:type="MSShapeGroup"></path>
            <path d="M194.808982,18.1438127 C195.631213,17.425864 195.948073,16.9620959 195.948073,16.3712375 C195.948073,15.7536232 195.557012,15.3745819 194.962398,15.3745819 C194.368787,15.3745819 193.899513,15.7536232 193.20563,16.6343367 L191.551139,15.1070234 C192.503724,13.735786 193.436256,13 195.160937,13 C197.09619,13 198.419782,14.270903 198.419782,16.1326644 C198.419782,17.7268673 197.687795,18.5406912 196.37423,19.599777 L194.850093,20.7814939 L198.5,20.7814939 L198.5,23 L191.501003,23 L191.501003,20.9487179 L194.808982,18.1438127 Z M188.302032,8.01812005 L188.302032,28 L186.302032,28 L186.302032,8 L188.302032,8.01812005 Z M171.025246,18.6607145 C171.89524,18.6607145 172.601139,19.2574829 172.601139,19.9955358 C172.601139,20.7335894 171.89524,21.3348216 171.025246,21.3348216 C170.155252,21.3348216 169.453818,20.7335894 169.453818,19.9955358 C169.453818,19.2574829 170.155252,18.6607145 171.025246,18.6607145 L171.025246,18.6607145 Z M200.27088,20.6354402 C200.056433,19.96614 200,19.4277652 200,17.9887133 C200,16.5553047 200.056433,16.013544 200.27088,15.3476298 C200.767494,13.7900677 202.104966,13 203.797968,13 C205.490971,13 206.829571,13.7900677 207.325056,15.3476298 C207.539503,16.0248307 207.595937,16.5553047 207.595937,18 C207.595937,19.4446953 207.539503,19.986456 207.325056,20.6523702 C206.828442,22.221219 205.490971,23 203.797968,23 C202.104966,23 200.768623,22.221219 200.27088,20.6523702 L200.27088,20.6354402 Z M171.047567,14.6964287 C171.843344,14.6964287 172.489532,15.2283388 172.489532,15.8839288 C172.489532,16.5395189 171.843344,17.071429 171.047567,17.071429 C170.251789,17.071429 169.610067,16.5395189 169.610067,15.8839288 C169.610067,15.2283388 170.251789,14.6964287 171.047567,14.6964287 L171.047567,14.6964287 Z M171.052032,13 C169.081142,13 167.480604,14.2525649 167.480604,15.7946431 C167.480604,16.6018246 167.923571,17.3250449 168.62346,17.8348218 C167.81563,18.3726907 167.302032,19.1764468 167.302032,20.0714286 C167.302032,21.6909329 168.982185,23 171.052032,23 C173.12188,23 174.797567,21.6909329 174.797567,20.0714286 C174.797567,19.1756401 174.28523,18.3726989 173.476138,17.8348218 C174.177103,17.3249809 174.618995,16.6025319 174.618995,15.7946431 C174.618995,14.2525649 173.022923,13 171.052032,13 L171.052032,13 Z M176.372912,20.6354402 C176.158465,19.96614 176.102031,19.4277652 176.102031,17.9887133 C176.102031,16.5553047 176.158465,16.013544 176.372912,15.3476298 C176.869526,13.7900677 178.206997,13 179.9,13 C181.593002,13 182.931602,13.7900677 183.427088,15.3476298 C183.641535,16.0248307 183.697968,16.5553047 183.697968,18 C183.697968,19.4446953 183.641535,19.986456 183.427088,20.6523702 C182.930474,22.221219 181.593002,23 179.9,23 C178.206997,23 176.870654,22.221219 176.372912,20.6523702 L176.372912,20.6354402 Z M181.403157,20.0654628 C181.516024,19.7268623 181.561171,19.2641084 181.561171,17.9887133 C181.561171,16.7133183 181.516024,16.261851 181.403157,15.9119639 C181.18871,15.2460497 180.675166,14.8510158 179.879455,14.8510158 C179.083744,14.8510158 178.5702,15.2573363 178.35801,15.9232506 C178.242886,16.2731377 178.199997,16.7358916 178.199997,18 C178.199997,19.2641084 178.242886,19.738149 178.35801,20.0767494 C178.5702,20.7539503 179.083744,21.1489842 179.879455,21.1489842 C180.675166,21.1489842 181.18871,20.7539503 181.403157,20.0880361 L181.403157,20.0654628 Z M205.303166,20.214447 C205.416033,19.8758465 205.46118,19.4130926 205.46118,18.1376975 C205.46118,16.8623025 205.416033,16.4108352 205.303166,16.0609481 C205.088719,15.3950339 204.575175,15 203.779464,15 C202.983753,15 202.470209,15.4063205 202.25802,16.0722348 C202.142895,16.4221219 202.100006,16.8848758 202.100006,18.1489842 C202.100006,19.4130926 202.142895,19.8871332 202.25802,20.2257336 C202.470209,20.9029345 202.983753,21.2979684 203.779464,21.2979684 C204.575175,21.2979684 205.088719,20.9029345 205.303166,20.2370203 L205.303166,20.214447 Z" id="Shape" fill="#FFFFFF" sketch:type="MSShapeGroup"></path>
            <path d="M18.1439052,23 C18.0581264,23 18.0005643,22.9416569 18.0005643,22.8529755 L18.0005643,13.1470245 C18.0005643,13.0583431 18.0569977,13 18.1439052,13 L21.8978555,13 C24.0028217,13 25.270316,14.3068845 25.270316,16.2205368 C25.270316,18.1026838 23.994921,19.4270712 21.9068849,19.4270712 L20.1800226,19.4270712 C20.1235892,19.4270712 20.1010158,19.4562427 20.1010158,19.5145858 L20.1010158,22.8518086 C20.1010158,22.9334889 20.0445824,22.991832 19.9655756,22.991832 L18.1597065,22.991832 L18.1439052,23 Z M23.1772009,16.2674944 C23.1772009,15.4853273 22.6512415,14.9582393 21.7697517,14.9582393 L20.1783296,14.9582393 C20.1218962,14.9582393 20.0925508,14.9875847 20.0925508,15.0440181 L20.0925508,17.476298 C20.0925508,17.5327314 20.1207675,17.5620767 20.1783296,17.5620767 L21.7697517,17.5620767 C22.6501129,17.5620767 23.1783296,17.0496614 23.1783296,16.2674944 L23.1772009,16.2674944 Z M30.0708796,20.6354402 C29.8564326,19.96614 29.7999992,19.4277652 29.7999992,17.9887133 C29.7999992,16.5553047 29.8564326,16.013544 30.0708796,15.3476298 C30.5674936,13.7900677 31.9049654,13 33.5979676,13 C35.2909699,13 36.6295703,13.7900677 37.1250557,15.3476298 C37.3395026,16.0248307 37.395936,16.5553047 37.395936,18 C37.395936,19.4446953 37.3395026,19.986456 37.1250557,20.6523702 C36.6284417,22.221219 35.2909699,23 33.5979676,23 C31.9049654,23 30.5686223,22.221219 30.0708796,20.6523702 L30.0708796,20.6354402 Z M35.234763,20.0654628 C35.3476298,19.7268623 35.3927765,19.2641084 35.3927765,17.9887133 C35.3927765,16.7133183 35.3476298,16.261851 35.234763,15.9119639 C35.020316,15.2460497 34.506772,14.8510158 33.7110609,14.8510158 C32.9153499,14.8510158 32.4018059,15.2573363 32.1896163,15.9232506 C32.0744921,16.2731377 32.0316027,16.7358916 32.0316027,18 C32.0316027,19.2641084 32.0744921,19.738149 32.1896163,20.0767494 C32.4018059,20.7539503 32.9153499,21.1489842 33.7110609,21.1489842 C34.506772,21.1489842 35.020316,20.7539503 35.234763,20.0880361 L35.234763,20.0654628 Z M49.8858542,22.9801749 C49.7842741,22.9801749 49.7278407,22.9218659 49.699624,22.8402332 L48.0201657,16.6244898 L47.9942064,16.6244898 L46.3012041,22.8402332 C46.2729874,22.9335277 46.2154253,22.9918367 46.1161025,22.9918367 L44.6917233,22.9918367 C44.6082018,22.9918367 44.5506398,22.9335277 44.5224231,22.851895 L42.0167797,13.155102 C42.005493,13.0664723 42.0337098,13.0081633 42.1330325,13.0081633 L43.9727617,13.0081633 C44.0743418,13.0081633 44.1307752,13.0664723 44.1420619,13.155102 L45.5416104,19.4326531 L45.5754705,19.4326531 L47.2346127,13.1516035 C47.2628294,13.0618076 47.3203915,13.0034985 47.4197143,13.0034985 L48.6589919,13.0034985 C48.7492854,13.0034985 48.8057188,13.0618076 48.8282921,13.148105 L50.5416104,19.4221574 L50.5675698,19.4221574 L51.8993982,13.1446064 C51.9151996,13.0396501 51.9671183,13 52.0686985,13 L53.8903689,13 C53.9896917,13 54.0179084,13.058309 54.0032357,13.1492711 L51.5145224,22.851895 C51.5032357,22.9405248 51.4287436,23 51.3294208,23 L49.9072989,23 L49.8858542,22.9801749 Z M58.1760722,13 L64.3792325,13 C64.4650113,13 64.520316,13.0583431 64.520316,13.1516919 L64.520316,14.7152859 C64.520316,14.8086348 64.4638826,14.8669778 64.3792325,14.8669778 L60.2110609,14.8669778 C60.1546275,14.8669778 60.1252822,14.8973162 60.1252822,14.9556593 L60.1252822,16.9509918 C60.1252822,17.0093349 60.1478555,17.0385064 60.2042889,17.0385064 L63.6693002,17.0385064 C63.748307,17.0385064 63.8047404,17.0968495 63.8047404,17.1831972 L63.8047404,18.7421237 C63.8047404,18.8308051 63.748307,18.8891482 63.6580135,18.8891482 L60.1941309,18.8891482 C60.1376975,18.8891482 60.1094808,18.9194866 60.1094808,18.9789965 L60.1094808,21.0478413 C60.1094808,21.1061844 60.1365688,21.1365228 60.1941309,21.1365228 L64.3702032,21.1365228 C64.4571106,21.1365228 64.5124153,21.1948658 64.5124153,21.2765461 L64.5124153,22.8518086 C64.5124153,22.9404901 64.4559819,23 64.3702032,23 L58.1738149,23 C58.0902935,23 58.0327314,22.9416569 58.0327314,22.8506418 L58.0327314,13.1423571 C58.0349887,13.0583431 58.0914221,13 58.1760722,13 Z M75.2591971,22.9883314 C75.1316576,22.9883314 75.0876395,22.9533256 75.0447501,22.8483081 L73.3810932,19.1843641 L72.0831249,19.1843641 C72.0266914,19.1843641 71.9928314,19.2193699 71.9928314,19.277713 L71.9928314,22.8483081 C71.9928314,22.9416569 71.936398,23 71.8461045,23 L70.0402355,23 C69.949942,23 69.8935086,22.9416569 69.8935086,22.8541424 L69.8935086,13.1458576 C69.8935086,13.0583431 69.949942,13 70.0289488,13 L73.8889939,13 C75.8641632,13 77.1734183,14.2788798 77.1734183,16.1038506 C77.1734183,17.3815636 76.5187908,18.3955659 75.446556,18.8809802 L77.3540052,22.8249708 C77.3968946,22.9113186 77.3540052,23 77.2558111,23 L75.2354951,23 L75.2591971,22.9883314 Z M75.1004515,16.1602709 C75.1004515,15.4379233 74.5880361,14.9638826 73.7911964,14.9638826 L72.0869074,14.9638826 C72.0282167,14.9638826 72,14.9977427 72,15.0541761 L72,17.2889391 C72,17.3453725 72.0282167,17.3792325 72.0857788,17.3792325 L73.7923251,17.3792325 C74.5880361,17.3792325 75.1015801,16.9164786 75.1015801,16.1715576 L75.1004515,16.1602709 Z M82.0823928,13.1399417 C82.0823928,13.058309 82.1388262,13 82.224605,13 L88.4209932,13 C88.5,13 88.5564334,13.058309 88.5564334,13.1516035 L88.5564334,14.7142857 C88.5564334,14.8040816 88.5,14.8635569 88.4097065,14.8635569 L84.2460497,14.8635569 C84.1896163,14.8635569 84.1613995,14.8927114 84.1613995,14.9510204 L84.1613995,16.9451895 C84.1613995,17.0034985 84.1896163,17.0361516 84.2471783,17.0361516 L87.7234763,17.0361516 C87.8137698,17.0361516 87.8702032,17.0944606 87.8702032,17.1842566 L87.8702032,18.7422741 C87.8702032,18.8297376 87.8137698,18.8880466 87.734763,18.8880466 L84.258465,18.8880466 C84.2020316,18.8880466 84.1738149,18.9183673 84.1738149,18.9778426 L84.1738149,21.045481 C84.1738149,21.1037901 84.2042889,21.1329446 84.2641084,21.1329446 L88.4288939,21.1329446 C88.51693,21.1329446 88.5722348,21.1912536 88.5722348,21.2787172 L88.5722348,22.8530612 C88.5722348,22.9405248 88.5158014,23 88.4300226,23 L82.2336343,23 C82.1501129,23 82.0925508,22.941691 82.0925508,22.8600583 L82.0925508,13.1574344 L82.0823928,13.1399417 Z M94.0146727,13.1398927 C94.0146727,13.0582886 94.0711061,13 94.1568849,13 L97.755079,13 C99.4480813,13 100.629797,13.7554208 101.099323,15.2499417 C101.268623,15.8095127 101.35553,16.3690837 101.35553,18.0011658 C101.35553,19.6332478 101.269752,20.1928188 101.099323,20.7500583 C100.629797,22.2515738 99.4480813,23 97.755079,23 L94.1568849,23 C94.0711061,23 94.013544,22.9417114 94.013544,22.8542784 L94.013544,13.1550478 L94.0146727,13.1398927 Z M96.2054176,20.979684 L97.2979684,20.979684 C98.265237,20.979684 98.8498871,20.6952596 99.0925508,19.9074492 C99.1918736,19.6252822 99.2505643,19.2528217 99.2505643,18.0090293 C99.2505643,16.765237 99.1918736,16.3871332 99.0925508,16.1015801 C98.8498871,15.3227991 98.2663657,15.0361174 97.2979684,15.0361174 L96.2031603,15.0361174 C96.1467269,15.0361174 96.1185102,15.0665914 96.1185102,15.1241535 L96.1185102,20.9006772 C96.1185102,20.9571106 96.1467269,20.986456 96.2042889,20.986456 L96.2054176,20.979684 Z M113.5,13.1470588 C113.5,13.0583567 113.556433,13 113.643341,13 L117.413093,13 C119.523702,13 120.505643,14.0737628 120.505643,15.6610644 C120.505643,16.7511671 120.020316,17.4281046 119.388262,17.7945845 L119.388262,17.8260971 C120.031603,18.0711951 120.68623,18.8998599 120.68623,20.0903361 C120.68623,22.0581232 119.422122,23 117.334086,23 L113.654628,23 C113.575621,23 113.51693,22.9416433 113.51693,22.851774 L113.51693,13.1412232 L113.5,13.1470588 Z M117.124153,17.1252822 C117.919865,17.1252822 118.388262,16.7031603 118.388262,15.9853273 C118.388262,15.2742664 117.919865,14.8679458 117.124153,14.8679458 L115.645598,14.8679458 C115.586907,14.8679458 115.558691,14.8939052 115.558691,14.9514673 L115.558691,17.0440181 C115.558691,17.1004515 115.586907,17.1275395 115.64447,17.1275395 L117.123025,17.1275395 L117.124153,17.1252822 Z M115.645598,21.1546275 L117.23702,21.1546275 C118.090293,21.1546275 118.546275,20.7009029 118.546275,19.9469526 C118.546275,19.2076749 118.090293,18.7392777 117.23702,18.7392777 L115.645598,18.7392777 C115.589165,18.7392777 115.559819,18.7663657 115.559819,18.8239278 L115.559819,21.0699774 C115.559819,21.1264108 115.588036,21.1568849 115.645598,21.1568849 L115.645598,21.1546275 Z M127.00687,22.9988331 C126.921091,22.9988331 126.863529,22.9404901 126.863529,22.8529755 L126.863529,19.0128355 L124.007999,13.1470245 C123.985425,13.0735123 124.007999,13 124.109579,13 L125.960595,13 C126.062175,13 126.129895,13.0443407 126.175042,13.1481914 L127.924477,16.7969662 L127.969624,16.7969662 L129.71906,13.1516919 C129.764207,13.0466744 129.843213,13.0046674 129.933507,13.0046674 L131.728089,13.0046674 C131.829669,13.0046674 131.874816,13.0746791 131.829669,13.1446908 L128.974139,19.0140023 L128.974139,22.8529755 C128.974139,22.9404901 128.917705,23 128.838699,23 L127.03283,23 L127.00687,22.9988331 Z" id="Shape" fill="#FFFFFF" sketch:type="MSShapeGroup"></path>
        </g>
    </g>
</svg>